<?xml version="1.0" encoding="UTF-8"?>
<svg width="420" height="96" viewBox="0 0 420 96" xmlns="http://www.w3.org/2000/svg" role="img" aria-label="Mazhai Boutique logo">
  <defs>
    <linearGradient id="goldGradient" x1="0%" y1="0%" x2="100%" y2="100%">
      <stop offset="0%" stop-color="#d7ad6e" />
      <stop offset="45%" stop-color="#b8854b" />
      <stop offset="100%" stop-color="#8a5a36" />
    </linearGradient>
    <linearGradient id="goldText" x1="0%" y1="0%" x2="100%" y2="100%">
      <stop offset="0%" stop-color="#b68d53" />
      <stop offset="100%" stop-color="#7f5f3c" />
    </linearGradient>
    <filter id="softShadow" x="-30%" y="-30%" width="160%" height="160%">
      <feDropShadow dx="0" dy="2" stdDeviation="3" flood-color="#000" flood-opacity="0.15" />
    </filter>
  </defs>

  <rect width="420" height="96" fill="transparent" />

  <g filter="url(#softShadow)">
    <path d="M32 24 C32 16 40 8 48 8 C56 8 64 16 64 24 C64 32 56 40 48 40 C40 40 32 32 32 24 Z" fill="url(#goldGradient)" />
    <path d="M46 24 C46 12 52 8 60 8 C68 8 74 16 74 24 C74 32 68 40 60 40 C52 40 46 36 46 24 Z" fill="url(#goldGradient)" />
  </g>

  <g transform="translate(90, 0)">
    <text x="0" y="35" fill="url(#goldText)" font-family="Cormorant, serif" font-size="26" font-weight="700" letter-spacing="1.2">MAZHAI BOUTIQUE</text>
    <text x="0" y="60" fill="#8a5a36" font-family="Cormorant, serif" font-size="11" letter-spacing="2">DRESS CLASSY FEEL SASSY</text>
  </g>
</svg>
