<?xml version="1.0" encoding="UTF-8"?>
<svg width="360" height="96" viewBox="0 0 360 96" xmlns="http://www.w3.org/2000/svg" role="img" aria-label="Mazhai Boutique logo">
  <defs>
    <linearGradient id="goldGradient" x1="0%" y1="0%" x2="100%" y2="100%">
      <stop offset="0%" stop-color="#d7ad6e"/>
      <stop offset="45%" stop-color="#b8854b"/>
      <stop offset="100%" stop-color="#8a5a36"/>
    </linearGradient>
    <linearGradient id="textGradient" x1="0%" y1="0%" x2="100%" y2="100%">
      <stop offset="0%" stop-color="#b98f59"/>
      <stop offset="100%" stop-color="#7d5b3c"/>
    </linearGradient>
  </defs>
  <rect width="360" height="96" fill="transparent" />
  <g transform="translate(0, 0)">
    <circle cx="48" cy="48" r="40" fill="url(#goldGradient)" />
    <path d="M26 28 C26 20 32 16 36 16 C40 16 44 20 44 28 L44 62" fill="none" stroke="#fff" stroke-width="6" stroke-linecap="round" />
    <path d="M44 62 L44 38 C44 32 50 26 54 26 C58 26 62 32 62 38 L62 62" fill="none" stroke="#fff" stroke-width="6" stroke-linecap="round" />
    <path d="M62 38 C66 32 72 30 76 36 C80 42 78 48 74 52 C70 56 64 56 62 58" fill="none" stroke="#fff" stroke-width="5" stroke-linecap="round" />
    <path d="M34 28 L34 16" stroke="#fff" stroke-width="6" stroke-linecap="round" />
    <path d="M32 36 C38 42 48 42 58 36" fill="none" stroke="#fff" stroke-width="4" stroke-linecap="round" />
    <path d="M44 22 C46 20 49 18 52 18" fill="none" stroke="#fff" stroke-width="4" stroke-linecap="round" />
    <path d="M62 26 C64 24 68 22 72 22" fill="none" stroke="#fff" stroke-width="4" stroke-linecap="round" />
  </g>
  <g transform="translate(98, 0)">
    <text x="0" y="36" fill="url(#textGradient)" font-family="Cormorant, serif" font-size="26" font-weight="700">MAZHAI BOUTIQUE</text>
    <text x="0" y="60" fill="#9a6b40" font-family="Cormorant, serif" font-size="12" letter-spacing="1.4">DRESS CLASSY FEEL SASSY</text>
  </g>
</svg>
