<?xml version="1.0" encoding="UTF-8"?>
<svg width="96" height="96" viewBox="0 0 96 96" xmlns="http://www.w3.org/2000/svg" role="img" aria-label="Mazhai Boutique MB monogram">
  <defs>
    <linearGradient id="goldGradient" x1="0%" y1="0%" x2="100%" y2="100%">
      <stop offset="0%" stop-color="#d4a06a"/>
      <stop offset="50%" stop-color="#b07a45"/>
      <stop offset="100%" stop-color="#8a5a36"/>
    </linearGradient>
    <filter id="dropShadow" x="-20%" y="-20%" width="140%" height="140%">
      <feDropShadow dx="0" dy="4" stdDeviation="4" flood-color="#000" flood-opacity="0.15"/>
    </filter>
  </defs>

  <g filter="url(#dropShadow)">
    <circle cx="48" cy="48" r="42" fill="url(#goldGradient)" />
    <path d="M26 30 C26 24 30 22 34 22 C38 22 40 26 40 30 L40 56" fill="none" stroke="#fff" stroke-width="6" stroke-linecap="round"/>
    <path d="M40 56 L40 34 C40 30 44 26 48 26 C52 26 56 30 56 34 L56 56" fill="none" stroke="#fff" stroke-width="6" stroke-linecap="round"/>
    <path d="M56 34 C60 30 66 28 70 34 C74 40 72 46 68 50 C64 54 58 54 56 56" fill="none" stroke="#fff" stroke-width="5" stroke-linecap="round"/>
    <path d="M34 30 L34 18" stroke="#fff" stroke-width="6" stroke-linecap="round"/>
  </g>
</svg>
